<?xml version="1.0" encoding="UTF-8" standalone="no"?>
<svg
   xmlns:dc="http://purl.org/dc/elements/1.1/"
   xmlns:cc="http://creativecommons.org/ns#"
   xmlns:rdf="http://www.w3.org/1999/02/22-rdf-syntax-ns#"
   xmlns:svg="http://www.w3.org/2000/svg"
   xmlns="http://www.w3.org/2000/svg"
   id="SVGRoot"
   version="1.1"
   viewBox="0 0 307 150"
   height="150px"
   width="307px">
  <defs
     id="defs2778" />
  <metadata
     id="metadata2781">
    <rdf:RDF>
      <cc:Work
         rdf:about="">
        <dc:format>image/svg+xml</dc:format>
        <dc:type
           rdf:resource="http://purl.org/dc/dcmitype/StillImage" />
        <dc:title></dc:title>
      </cc:Work>
    </rdf:RDF>
  </metadata>
  <g
     id="layer1">
    <g
       transform="matrix(0.16763747,0,0,0.16763747,18.844696,25.048582)"
       id="g132">
      <g
         id="g852"
         transform="matrix(2.0477426,0,0,2.0955641,-342.78638,-280.27495)"
         style="fill:#ffffff;fill-opacity:1">
        <path
           style="clip-rule:evenodd;fill:#ffffff;fill-opacity:1;fill-rule:evenodd"
           id="path14"
           d="m 217.93051,208.30848 c 5.5,11 6.6,22.4 5.7,34.2 -12.9,22.4 -29,86.1 22.8,138.5 32.1,32.5 76.5,46.7 124.2,30.6 25.1,-8.5 29.2,-14.4 29.2,-14.4 -7.1,5.1 -64.4,0.9 -91.1,-21 -42.5,-35.4 -11.6,-61.7 -4,-67.6 5,-3.9 -31.6,8.8 -37.4,35.7 -1.5,-4.3 1.8,-8.1 1.8,-12.3 0,-2.9 -3.2,-6.7 -4.6,-11.5 -18.4,-61.6 1.6,-119.4 63.1,-145.3 -23.7,-0.5 -63,11.6 -93.2,49.4 2,3.2 3.2,6.5 3.6,15.1 0,-0.3 -4.6,-21.5 -20.1,-31.4 z"
           class="st1" />
        <path
           style="clip-rule:evenodd;fill:#ffffff;fill-opacity:1;fill-rule:evenodd"
           id="path16"
           d="m 212.23051,229.10848 c 0.5,-0.3 0.9,-1 1.2,-1.5 0.4,-0.5 0.7,-1 1,-1.6 l 1.7,-3.5 c 0.5,-1.1 0.9,-2.6 1.3,-4 0.7,-2.9 0.7,-5.8 -0.6,-8.8 -1.3,-2.7 -2.5,-3.9 -4.7,-5.7 -0.5,-0.4 -2.8,-1.9 -3.3,-1.9 -0.7,0.1 -2.4,2 -2.8,2.5 -1.7,2.1 -2.9,5 -2.9,7.7 0,3 0.9,5.7 2.3,8.2 0.3,0.5 0.6,1.2 0.9,1.7 0.6,0.9 1.6,2.1 2.2,3 1.1,1.5 1.4,1.5 2.4,2.7 0.3,0.3 0.7,0.9 1.3,1.2 z"
           class="st2" />
        <path
           style="clip-rule:evenodd;fill:#ffffff;fill-opacity:1;fill-rule:evenodd"
           id="path18"
           d="m 212.53051,200.10848 c 0.3,-0.5 0.7,-0.6 1.1,-1.1 3.3,-3.1 3.7,-7.5 2.4,-11.7 -0.8,-2.6 -3.5,-6.1 -5.5,-8.1 -0.6,-0.6 -1.6,-2 -2.3,-2.2 -0.6,0.5 -1.3,1.8 -1.7,2.7 -0.3,0.6 -0.5,0.9 -0.8,1.4 -1,2.4 -2.2,6.4 -1.8,9.3 0.5,3.6 2.4,6.3 5.2,8.2 0.9,0.6 2.3,1.5 3.4,1.5 z"
           class="st2" />
        <path
           style="clip-rule:evenodd;fill:#ffffff;fill-opacity:1;fill-rule:evenodd"
           id="path20"
           d="m 185.33051,197.00848 c -0.1,0.9 3,3.6 3.7,4.2 l 1,0.8 c 1.2,0.9 2.4,1.4 3.8,2 4,1.4 7.3,0.2 10.3,-2.3 1.1,-0.9 1.6,-1.3 1.1,-2.4 -3.4,-6.1 -8.1,-6.5 -14.7,-4.7 -0.3,0.1 -1,0.4 -1.4,0.5 z"
           class="st2" />
        <path
           style="clip-rule:evenodd;fill:#ffffff;fill-opacity:1;fill-rule:evenodd"
           id="path22"
           d="m 214.83051,200.50848 c 0,1.3 0.7,3.2 1.4,4 0.8,1 1.8,1.8 3.1,2.3 2.5,1.1 7.1,0.9 9.4,0.1 0,-0.1 -0.1,-0.3 -0.1,-0.3 -0.1,-0.3 0,-0.1 -0.1,-0.3 -1.8,-3.7 -4.7,-7.8 -9.4,-7.4 -1.4,0.2 -3.4,1 -4.3,1.6 z"
           class="st3" />
        <path
           style="clip-rule:evenodd;fill:#ffffff;fill-opacity:1;fill-rule:evenodd"
           id="path24"
           d="m 432.53051,393.20848 c 1.5,-1.4 3.5,-3.3 4.9,-4.9 0.6,-0.8 4.1,-5 4.3,-5.5 -0.6,-0.8 -5.7,-2.6 -7.1,-3 -1,-0.3 -3,-0.9 -4,-1.1 -0.8,-0.1 -1.3,-0.2 -2,-0.4 -0.5,-0.1 -1.9,-0.2 -2.4,-0.3 -3.2,-0.3 -6.6,0 -9.3,0.8 -4.7,1.4 -8.8,4.8 -11.1,9.2 -1.3,2.6 -1.3,2.7 -2.3,5.3 -0.2,0.7 -0.5,0.6 0.7,1.6 2.8,2.6 6.4,4.2 10.3,4.8 6.3,1.2 13.5,-2.5 18,-6.5 z"
           class="st2" />
        <path
           style="clip-rule:evenodd;fill:#ffffff;fill-opacity:1;fill-rule:evenodd"
           id="path26"
           d="m 398.83051,401.60848 c -0.6,5 2.4,9.8 6.7,11.8 2.6,1.2 4.3,1.6 7.3,2 1.3,0.2 3.3,0.1 4.7,0.1 0.7,0 1.6,0 2.2,-0.1 1.1,-0.1 0.8,-0.4 0.5,-1.4 -1.9,-6.6 -6.6,-13.9 -13.8,-14.1 -2.8,0 -5.5,0.6 -7.6,1.7 z"
           class="st2" />
        <path
           style="clip-rule:evenodd;fill:#ffffff;fill-opacity:1;fill-rule:evenodd"
           id="path28"
           d="m 394.13051,376.90848 c -0.6,0.5 -2,3.5 -2.3,4.5 -1.1,3.7 -1.3,8 1.8,10.7 0.6,0.6 3.3,2.8 4.4,2.5 0.9,-0.3 2.5,-3.1 2.8,-4.1 0.5,-2.3 0.3,-5.2 -1,-7.1 -0.3,-0.4 -0.4,-0.7 -0.7,-1.1 -0.8,-1.6 -4,-5.1 -5,-5.4 z"
           class="st3" />
        <path
           style="clip-rule:evenodd;fill:#ffffff;fill-opacity:1;fill-rule:evenodd"
           id="path30"
           d="m 379.73051,387.40848 c 0.1,3.3 2.3,7.5 4.1,8.4 0.5,0.2 1.2,0.6 1.7,0.8 1.1,0.3 3.9,0.2 4.7,-0.2 0.7,-0.4 1,-4.4 -2.4,-6.9 -2.1,-1.5 -5.3,-2.1 -8.1,-2.1 z"
           class="st3" />
        <path
           style="clip-rule:evenodd;fill:#ffffff;fill-opacity:1;fill-rule:evenodd"
           id="path32"
           d="m 391.03051,413.90848 c 2,0.2 4,-1.6 4.6,-3 0.9,-2.1 0.5,-4.7 0,-6.8 -1.8,0.3 -3.8,2.2 -4.8,3.5 -1.5,2.1 -1,4.3 0.2,6.3 z"
           class="st3" />
        <path
           style="clip-rule:evenodd;fill:#ffffff;fill-opacity:1;fill-rule:evenodd"
           id="path34"
           d="m 311.83051,338.00848 0.6,0.1 c 6.7,-9.2 9.7,-23.2 -3.9,-28.9 -1.2,0.5 -2.7,2.3 -3.5,3.3 -9.3,12.4 5.9,21.3 6.8,25.5 z"
           class="st2" />
        <path
           style="clip-rule:evenodd;fill:#ffffff;fill-opacity:1;fill-rule:evenodd"
           id="path36"
           d="m 308.83051,302.40848 c 2,5 5.5,8 11.9,7.9 3.1,-0.1 6.6,-1.4 9.3,-2.7 1.3,-0.7 2.4,-1.6 3.8,-2.1 -2.4,-4 -10.5,-8.4 -14,-8 -10,0.4 -6.6,3.4 -11,4.9 z"
           class="st2" />
        <path
           style="clip-rule:evenodd;fill:#ffffff;fill-opacity:1;fill-rule:evenodd"
           id="path38"
           d="m 283.83051,299.50848 c 0.2,0.8 3.1,3.7 4.1,4.4 1.7,1.3 3.3,2.4 5.5,3 2.8,0.9 4.7,0.6 7.2,-0.3 1.3,-0.5 4.2,-2.7 4.9,-3.8 -0.1,-1.1 -1.7,-3.3 -2.5,-4 -4.6,-4.5 -14.9,-3.2 -19.2,0.7 z"
           class="st3" />
        <path
           style="clip-rule:evenodd;fill:#ffffff;fill-opacity:1;fill-rule:evenodd"
           id="path40"
           d="m 304.73051,290.30848 c -3.1,5.4 1.7,9.2 2.3,9.2 1.1,-0.4 2.5,-1.9 2.9,-3.1 0.7,-2.4 -1.1,-8.3 -2.9,-9.2 -0.8,0.5 -1.8,2.2 -2.3,3.1 z"
           class="st3" />
        <path
           style="clip-rule:evenodd;fill:#ffffff;fill-opacity:1;fill-rule:evenodd"
           id="path42"
           d="m 313.63051,133.60848 c -1.6,0.8 -5.5,6.9 -6.7,8.6 -0.9,1.3 -1.9,3.6 -2.5,5.1 -1.9,5 -2.5,10.5 -0.1,15.6 0.4,0.9 0.8,1.6 1.3,2.4 1.5,2.6 5.1,5.8 7.5,7.4 0.6,0.4 0.7,0.3 1.4,-0.1 0.4,-0.3 0.7,-0.5 1.2,-0.8 0.7,-0.5 1.4,-1 2.1,-1.6 1.3,-1.3 2.4,-2.5 3.4,-4.1 4.5,-7.4 2.5,-16.1 -1.5,-23.4 -0.3,-0.9 -5,-8.6 -6.1,-9.1 z"
           class="st2" />
        <path
           style="clip-rule:evenodd;fill:#ffffff;fill-opacity:1;fill-rule:evenodd"
           id="path44"
           d="m 328.93051,172.90848 c 2.7,0.4 6.6,-1.2 8.3,-2.4 2,-1.4 3.7,-3.2 4.9,-5.7 2.5,-5.4 2.1,-12 1.2,-18.3 -1.2,-0.1 -6.5,2.7 -7.9,3.6 -6.9,4.4 -10.9,10.4 -8.2,18.8 0.5,1.5 1.2,2.7 1.7,4 z"
           class="st2" />
        <path
           style="clip-rule:evenodd;fill:#ffffff;fill-opacity:1;fill-rule:evenodd"
           id="path46"
           d="m 331.43051,176.90848 c 0,1.7 1.5,3.4 2.9,4.3 3.2,2 8.2,2.4 12,2.3 1.2,-0.1 5.7,-0.3 6.5,-0.7 -0.3,-1.1 -2.6,-3.1 -3.6,-3.9 -4.9,-3.8 -12.5,-4.5 -17.8,-2 z"
           class="st2" />
        <path
           style="clip-rule:evenodd;fill:#ffffff;fill-opacity:1;fill-rule:evenodd"
           id="path48"
           d="m 336.63051,189.50848 c -0.1,-1.7 -2.9,-5.1 -4.3,-6.1 -2.5,-1.9 -5.3,-1.5 -7.9,-0.3 -0.9,0.4 -0.6,1.1 -0.3,2 1,3.7 4.3,4.9 8,4.9 1,0.1 3.9,-0.2 4.5,-0.5 z"
           class="st2" />
      </g>
    </g>
    <g
       id="text947"
       style="font-style:normal;font-variant:normal;font-weight:normal;font-stretch:normal;font-size:37.01875687px;line-height:1.25;font-family:luna;-inkscape-font-specification:luna;letter-spacing:0px;word-spacing:0px;fill:#ffffff;fill-opacity:1;stroke:none;stroke-width:1.38820338"
       aria-label="ALUEN">
      <path
         id="path3437"
         style="fill:#ffffff;fill-opacity:1;stroke-width:1.38820338"
         d="m 168.17571,98.260166 q 0,0.407206 -0.44423,0.740375 -0.4072,0.29615 -0.77739,0.481244 -0.29615,0.148075 -0.5923,0.29615 -0.25913,0.148075 -0.55528,0.111056 -0.85143,-0.07404 -1.70287,-0.03702 -0.85143,0.03702 -1.62882,-0.407207 -0.81441,-0.407206 -1.40671,-1.036525 -0.5923,-0.666338 -0.99951,-1.517769 -0.66634,-1.295656 -1.11056,-2.628332 -0.44423,-1.332675 -0.74038,-2.739388 -0.33317,-1.665844 -0.81441,-3.25765 -0.44423,-1.591807 -0.88845,-3.220632 -0.48125,-1.739882 -0.85143,-3.479763 -0.33317,-1.776901 -0.70336,-3.553801 0,-0.07404 -0.037,-0.111056 0,-0.07404 0,-0.148075 -0.074,-0.407207 -0.14807,-0.629319 -0.074,-0.222113 -0.22212,-0.333169 -0.11105,-0.111056 -0.33316,-0.111056 -0.22212,-0.03702 -0.62932,-0.03702 -3.47977,0 -6.95953,-0.333169 -0.18509,-0.03702 -0.40721,0 -0.22211,0 -0.55528,0 -0.48124,0.03702 -0.70335,0.03702 -0.22212,-0.03702 -0.37019,0.03702 -0.11106,0.07404 -0.22211,0.333169 -0.11106,0.259131 -0.33317,0.851431 -1.22162,2.998519 -2.48026,5.997039 -1.22162,2.9615 -2.44324,5.960019 -0.44422,1.073544 -0.81441,2.184107 -0.33317,1.073544 -0.74038,2.184107 -0.18509,0.5923 -0.51826,1.073544 -0.29615,0.481244 -0.81441,0.88845 -0.22211,0.185094 -0.48124,0.333169 -0.22212,0.111056 -0.51827,-0.07404 -0.29615,-0.185094 -0.37018,-0.444225 -0.037,-0.29615 0.037,-0.5923 0.40721,-1.591807 0.7774,-3.146594 0.4072,-1.591807 0.92547,-3.146595 1.29565,-4.035044 2.85044,-7.922014 1.59181,-3.923988 2.99852,-7.959032 0.77739,-2.295163 1.66584,-4.442251 0.92547,-2.184107 1.85094,-4.405232 0.92547,-2.184107 1.81392,-4.331195 0.88845,-2.147088 1.7769,-4.294176 l 0.96249,-2.591313 q 0.14807,-0.29615 0.22211,-0.555281 0.074,-0.259131 0.37019,-0.444225 0.51826,-0.29615 0.92547,-0.629319 0.44422,-0.333169 0.88845,-0.666338 0.37019,-0.259131 0.88845,-0.444225 0.66634,-0.148075 1.29566,-0.07404 0.62931,0.03702 0.74037,0.703356 0.55528,1.628826 1.25864,3.923988 0.62932,1.961995 1.44373,4.849458 0.81441,2.887463 1.88796,6.774432 0.51826,2.628332 1.07354,5.219645 0.55528,2.554294 1.29566,5.108588 0.44422,1.554788 0.77739,3.146595 0.33317,1.591806 0.70336,3.183613 1.07354,3.998025 1.96199,7.255676 0.37019,1.406713 0.70336,2.776407 0.37019,1.332675 0.62932,2.443238 0.29615,1.110563 0.44422,1.887956 0.14808,0.777394 0.14808,0.962488 z m -16.10316,-39.90622 q -0.88845,1.924976 -1.73988,3.738895 -0.85144,1.7769 -1.66585,3.5538 -1.70286,3.59082 -2.9615,7.181639 -0.074,0.222113 -0.14807,0.444225 -0.074,0.185094 0,0.481244 0.85143,-0.07404 1.66584,-0.148075 0.81441,-0.07404 1.62883,-0.07404 1.07354,-0.03702 2.14708,0 1.07355,0 2.14709,0 0.66634,0 0.7774,-0.111056 0.11105,-0.148075 0.037,-0.777394 -0.33316,-2.66535 -0.66633,-5.293682 -0.33317,-2.66535 -0.66634,-5.330701 -0.11106,-0.851431 -0.22211,-1.739881 -0.11106,-0.925469 -0.33317,-1.924976 z" />
      <path
         id="path3439"
         style="fill:#ffffff;fill-opacity:1;stroke-width:1.38820338"
         d="m 179.37735,95.965003 q 0.66634,0.03702 1.1846,-0.185094 0.55528,-0.222112 1.07354,-0.481243 0.81442,-0.407207 1.51777,-0.851432 0.74038,-0.444225 1.40672,-1.036525 2.25814,-1.850938 4.81243,-3.109576 0.44423,-0.185093 0.88845,-0.333168 0.44423,-0.185094 0.96249,-0.185094 0.5923,0 0.85143,0.333169 0.29615,0.29615 0.11106,0.814412 -0.18509,0.481244 -0.40721,0.88845 -0.22211,0.370188 -0.66633,0.666338 -1.55479,1.073544 -3.03554,2.147088 -1.48075,1.073544 -3.03554,2.147088 -1.25864,0.851431 -2.59131,1.591806 -1.29566,0.740375 -2.81343,1.073544 -0.62932,0.185094 -1.29566,0.259132 -0.62931,0.07404 -1.29565,0.148075 -0.74038,0.07404 -1.44373,-0.07404 -0.70336,-0.185094 -1.40672,-0.481244 -0.14807,-0.07404 -0.29615,-0.185094 -0.11105,-0.111056 -0.18509,-0.259131 -0.25913,-0.5923 -0.51826,-1.147581 -0.25913,-0.555282 -0.37019,-1.147582 -0.5923,-2.66535 -0.85143,-5.293682 -0.25913,-2.66535 -0.44423,-5.330701 -0.18509,-2.554294 -0.4072,-5.034551 -0.22212,-2.517275 -0.5923,-5.07157 -0.25913,-1.7769 -0.44423,-3.5538 -0.14807,-1.813919 -0.25913,-3.627838 -0.18509,-2.369201 -0.25913,-4.738401 -0.074,-2.369201 -0.14808,-4.77542 -0.037,-1.369694 0.037,-2.702369 0.074,-1.369694 0.22212,-2.702369 0.074,-0.740376 0.29615,-1.443732 0.25913,-0.740375 0.48124,-1.48075 0.14807,-0.370188 0.48124,-0.444225 0.33317,-0.07404 0.62932,-0.07404 1.14758,-0.03702 1.962,0.703357 0.85143,0.703356 1.1846,1.7769 0.25913,0.88845 0.44422,1.7769 0.22211,0.88845 0.29615,1.813919 0.074,0.5923 0.11106,1.147582 0.074,0.555281 0.11105,1.110562 0.074,0.999507 0.11106,2.036032 0.037,0.999507 0.074,2.036032 0.037,0.999506 0.037,1.999013 0,0.999506 0,1.999012 0,0.222113 0,0.444226 0,0.222112 0.074,0.407206 0.1851,0.740375 0.1851,1.48075 0,0.703357 0.037,1.443732 0.074,0.629319 0.11105,1.295656 0.074,0.666338 0.14808,1.295657 0.037,0.370187 0.037,0.703356 0,0.333169 0.037,0.703356 0.11105,1.184601 0.22211,2.369201 0.14807,1.1846 0.44422,2.3692 0.1851,0.629319 0.1851,1.258638 0.037,0.629319 0.11105,1.258638 0.11106,0.703356 0.22212,1.406713 0.11105,0.703356 0.22211,1.406712 0.18509,1.073544 0.37019,2.184107 0.18509,1.073544 0.22211,2.184107 0.074,1.554787 0.25913,3.035538 0.22211,1.48075 0.37019,2.998519 0.037,0.259131 0.074,0.518263 0.074,0.222112 0.14808,0.518262 z" />
      <path
         id="path3441"
         style="fill:#ffffff;fill-opacity:1;stroke-width:1.38820338"
         d="m 216.35215,50.098763 q -0.037,0.407207 -0.074,0.740376 -0.037,0.333168 0,0.703356 0.037,1.073544 0.074,2.184107 0.037,1.110562 0.074,2.184106 0.037,1.258638 0,2.517276 0,1.221619 0.037,2.443238 0.037,1.591806 0.074,3.146594 0.037,1.554788 0.037,3.146594 -0.037,1.999013 -0.11106,3.998026 -0.037,1.999013 -0.074,3.998026 -0.037,1.073544 -0.037,2.147088 0,1.073544 -0.074,2.147088 -0.11106,1.702862 -0.25913,3.405725 -0.11106,1.665844 -0.33317,3.331688 -0.29615,1.999013 -0.77739,3.923989 -0.48125,1.887956 -1.3697,3.738894 -0.74037,1.554788 -1.88795,2.813426 -1.14759,1.258637 -2.77641,2.036031 -1.7769,0.851432 -3.59082,1.1846 -1.7769,0.296149 -3.70188,-0.518262 -0.96248,-0.407207 -1.81391,-0.962488 -0.81442,-0.5923 -1.44374,-1.406713 -1.14758,-1.517769 -1.96199,-3.183613 -0.81441,-1.665844 -1.22162,-3.5538 -0.22211,-1.073544 -0.55528,-2.147088 -0.33317,-1.073544 -0.51826,-2.184107 -0.25913,-1.517769 -0.40721,-2.998519 -0.11106,-1.517769 -0.22211,-3.072557 -0.33317,-4.368213 -0.44423,-8.810464 -0.074,-1.961994 -0.11105,-3.88697 0,-1.924975 0,-3.886969 -0.037,-2.147088 -0.037,-4.257157 0,-2.147088 0,-4.294176 0,-0.518263 0,-1.073544 0,-0.555281 0.074,-1.073544 0.11105,-1.036525 0.81441,-1.813919 0.70335,-0.777394 2.1841,-0.629319 0.99951,0.111056 1.59181,0.5923 0.62932,0.481244 0.92547,1.443732 0.074,0.185094 0.11106,0.333169 0.074,0.148075 0.14807,0.333168 0.5923,1.110563 0.88845,2.295163 0.33317,1.147582 0.62932,2.332182 0.48124,2.036032 0.55528,4.109082 0.11106,2.036032 0.22211,4.109082 0.074,1.221619 0.14808,2.443238 0.074,1.1846 0.14807,2.406219 0.11106,1.628825 0.22212,3.220632 0.14807,1.554788 0.25913,3.146594 0.074,1.591807 0.11105,3.183613 0.074,1.591807 0.29615,3.183614 0.25914,1.7769 0.62932,3.516781 0.37019,1.702863 0.7774,3.442745 0.18509,0.740375 0.51826,1.443731 0.33317,0.666338 0.74037,1.295657 0.59231,0.999506 1.51777,1.443731 0.96249,0.444225 2.11007,0.481244 0.40721,0 0.62932,-0.148075 0.25913,-0.185094 0.48125,-0.481244 0.70335,-0.962487 1.14758,-1.999013 0.48124,-1.073543 0.77739,-2.221125 0.51826,-2.036032 0.74038,-4.072063 0.22211,-2.036032 0.25913,-4.109082 0.037,-2.258144 0.074,-4.47927 0.074,-2.221125 0.14807,-4.442251 0.074,-1.7769 0.074,-3.516782 0,-1.739881 0.074,-3.516781 0.074,-1.480751 0.14807,-2.961501 0.074,-1.48075 0.14808,-2.961501 0.074,-1.221619 0.11105,-2.443237 0.037,-1.221619 0.074,-2.443238 0.037,-0.962488 0.18509,-1.887957 0.14808,-0.962488 0.51827,-1.850938 0.29615,-0.740375 0.77739,-1.036525 0.51826,-0.29615 1.51777,-0.222113 z" />
      <path
         id="path3443"
         style="fill:#ffffff;fill-opacity:1;stroke-width:1.38820338"
         d="m 218.07872,64.388004 q 0.074,-2.443238 0.074,-4.553308 0,-2.110069 -0.074,-4.220138 -0.037,-2.517275 1.44373,-4.590326 0.37019,-0.518262 0.92547,-0.666337 0.55528,-0.185094 1.14758,-0.259132 1.51777,-0.07404 2.99852,-0.03702 1.51777,0.03702 3.03554,0.111056 1.1846,0.07404 2.33218,0.148075 1.1846,0.07404 2.3692,0.148075 2.5543,0.185094 5.07157,0.444225 2.5543,0.222113 5.07157,0.814413 1.81392,0.444225 3.29467,1.443731 0.14808,0.111056 0.25913,0.222113 0.14808,0.07404 0.22211,0.222112 0.25914,0.407207 0.074,0.703357 -0.14807,0.29615 -0.5923,0.333168 -0.85143,0 -1.70286,0 -0.81441,0 -1.66585,-0.03702 -1.70286,-0.07404 -3.40572,-0.148075 -1.70286,-0.07404 -3.44275,-0.259132 -1.88795,-0.148075 -3.73889,-0.222112 -1.85094,-0.07404 -3.73889,-0.222113 -0.44423,-0.03702 -0.88845,-0.03702 -0.44423,0 -0.88845,0 -0.40721,0.03702 -0.51827,0.185093 -0.074,0.111057 0,0.518263 0.074,0.333169 0.14808,0.703356 0.074,0.333169 0.14807,0.666338 0.14808,0.518263 0.29615,0.666338 0.14808,0.111056 0.70336,0.111056 1.33267,0.03702 2.62833,0 1.33268,-0.03702 2.66535,0.03702 2.77641,0.07404 5.55282,0.555281 1.11056,0.222112 2.29516,0.740375 0.85143,0.370188 1.36969,1.036525 0.55528,0.666338 1.07355,1.406713 0.11105,0.185094 0.18509,0.407206 0.074,0.185094 -0.11106,0.370188 -0.14807,0.185094 -0.33317,0.148075 -0.18509,-0.03702 -0.37018,-0.07404 -1.88796,-0.370187 -3.7389,-0.407206 -1.85094,-0.03702 -3.73889,0 -3.33169,0 -6.7004,-0.222112 h -0.74037 q -0.44423,0 -0.48125,0.444225 0,0.111056 -0.037,0.222112 0,0.07404 0,0.148075 -0.1851,4.035045 -0.25914,8.03307 -0.037,3.998026 0.11106,8.033071 0.11106,3.25765 0.11106,6.441263 0.037,3.146595 0.037,6.367227 0,0.5923 -0.037,1.1846 -0.037,0.555281 -0.11106,1.147581 -0.14807,1.1846 0.55528,1.999013 0.70336,0.777394 1.88796,0.88845 0.92547,0.07404 1.81392,0.111057 0.88845,0 1.81392,0.03702 2.25814,0.03702 4.47927,0.111057 2.25814,0.07404 4.51628,0.148075 0.70336,0 1.3697,0.185093 0.70335,0.148075 1.36969,0.333169 1.03653,0.29615 1.3697,1.258638 0.14807,0.518263 0,0.740375 -0.11106,0.222113 -0.62932,0.29615 -0.96249,0.111056 -1.962,0.222113 -0.9995,0.07404 -1.99901,0.111056 -2.11007,0.07404 -4.18312,0.148075 -2.03603,0.03702 -4.1461,0.111056 -0.70336,0 -1.36969,0.03702 -0.66634,0.03702 -1.33268,0.03702 -0.81441,0.03702 -1.55479,0.259131 -0.74037,0.185094 -1.55478,0.259131 -1.29566,0.07404 -2.5543,-0.185093 -1.22162,-0.259132 -2.33218,-0.962488 -0.74038,-0.481244 -1.22162,-1.221619 -0.48124,-0.777394 -0.77739,-1.628825 -0.29615,-0.814413 -0.29615,-1.628826 0,-0.777394 -0.14808,-1.554787 -0.11105,-0.777394 -0.25913,-1.554788 -0.18509,-1.110563 -0.25913,-2.221126 -0.074,-1.110562 -0.11106,-2.221125 -0.074,-2.406219 -0.25913,-4.77542 -0.14807,-2.3692 -0.25913,-4.775419 -0.11106,-2.110069 -0.22211,-4.220139 -0.11106,-2.110069 -0.074,-4.220138 0.037,-1.1846 0,-2.332182 0,-1.147581 0,-1.999012 z" />
      <path
         id="path3445"
         style="fill:#ffffff;fill-opacity:1;stroke-width:1.38820338"
         d="m 256.26704,65.646641 q 0.22211,1.665844 0.40721,3.220632 0.18509,1.517769 0.37018,3.072557 0.074,0.851431 0.11106,1.702863 0.074,0.814412 0.14807,1.665844 0.11106,1.517769 0.22212,2.998519 0.11105,1.48075 0.18509,2.998519 0.074,1.554788 0.074,3.146595 0.037,1.554788 0.074,3.109575 0,2.147088 -0.11106,4.257157 -0.037,0.703357 -0.18509,1.369694 -0.11106,0.666338 -0.44423,1.295657 -0.44422,0.814413 -1.1846,1.406713 -0.40721,0.370187 -0.77739,0.814412 -0.33317,0.407207 -0.66634,0.851432 -1.03653,1.295656 -2.40622,2.44324 -0.51826,-0.222115 -0.74038,-0.592302 -0.18509,-0.407207 -0.37018,-0.851432 -0.1851,-0.444225 -0.37019,-0.88845 -0.14808,-0.481244 -0.37019,-0.925469 -0.55528,-1.073544 -0.92547,-2.221125 -0.33317,-1.184601 -0.37018,-2.443238 -0.074,-2.221126 -0.11106,-4.442251 0,-2.221126 -0.074,-4.442251 -0.074,-2.036032 -0.11106,-4.035044 -0.037,-2.036032 -0.11105,-4.035045 -0.074,-1.517769 -0.074,-2.998519 0.037,-1.480751 -0.037,-2.961501 -0.074,-1.554788 -0.18509,-3.109575 -0.11106,-1.554788 -0.1851,-3.109576 -0.074,-1.1846 -0.037,-2.295163 0,-1.147581 0.037,-2.332182 0,-0.629318 0.037,-1.221619 0.074,-0.629318 0.11106,-1.258637 0.037,-0.5923 0.40721,-1.036525 0.37018,-0.481244 0.88845,-0.703357 0.51826,-0.259131 1.11056,-0.222112 0.5923,0 1.07354,0.333168 0.40721,0.259132 0.74038,0.518263 0.33317,0.259131 0.51826,0.666338 0.66634,1.406712 1.70286,2.480256 1.07355,1.073544 2.11007,2.184107 1.48075,1.554788 2.81343,3.146594 1.36969,1.591807 2.51727,3.368707 1.33268,2.036032 2.62834,4.035045 1.29565,1.999013 2.66535,3.998025 1.29565,1.924976 2.62833,3.812932 1.36969,1.887957 2.7764,3.775914 0.7774,1.073544 1.66585,2.036031 0.88845,0.962488 1.73988,1.961994 0.037,0.03702 0.074,0.07404 0.074,0 0.14807,0.03702 0.29615,-0.07404 0.29615,-0.259132 0.037,-0.185093 0.037,-0.370187 -0.074,-1.1846 -0.11105,-2.332182 -0.037,-1.1846 -0.11106,-2.3692 -0.11106,-2.776407 -0.22211,-5.515795 -0.11106,-2.739388 -0.1851,-5.515795 -0.074,-2.3692 -0.11105,-4.701382 0,-2.3692 -0.074,-4.738401 -0.037,-1.665844 -0.074,-3.257651 -0.037,-1.591806 -0.037,-3.25765 0,-0.962488 0.1851,-1.850938 0.22211,-0.925469 0.70335,-1.887957 0.55528,0.259132 0.81442,0.666338 0.25913,0.407206 0.4072,0.88845 0.11106,0.333169 0.14808,0.703357 0.037,0.370187 0.11105,0.703356 0.62932,2.591313 0.81442,5.219645 0.22211,2.628331 0.44422,5.293682 0.25913,2.998519 0.48124,6.034057 0.25914,2.99852 0.55529,6.034058 0.11105,1.110562 0.29615,2.221125 0.22211,1.110563 0.29615,2.258144 0.18509,2.332182 0.37018,4.664364 0.22212,2.295163 -0.074,4.664363 -0.074,0.518263 -0.22212,1.036525 -0.14807,0.481244 -0.33317,0.999507 -0.22211,0.5923 -0.48124,1.1846 -0.25913,0.5923 -0.51826,1.258638 -1.07355,-0.03702 -2.14709,-0.222113 -1.07354,-0.185094 -1.81392,-1.221619 -0.33317,-0.444225 -0.70336,-0.88845 -0.33316,-0.444225 -0.66633,-0.88845 -1.07355,-1.258638 -2.14709,-2.517276 -1.03653,-1.258638 -2.07305,-2.554294 -0.66634,-0.851431 -1.25864,-1.702863 -0.5923,-0.88845 -1.22162,-1.7769 -1.07354,-1.554788 -2.14709,-3.109576 -1.03652,-1.554788 -2.07305,-3.146594 -1.29565,-1.924975 -2.55429,-3.849951 -1.22162,-1.961994 -2.48026,-3.923988 -0.44422,-0.666338 -0.9995,-1.295656 -0.55528,-0.629319 -1.25864,-1.332676 z" />
    </g>
  </g>
</svg>
